<svg xmlns="http://www.w3.org/2000/svg" width="25.192" height="22.191" viewBox="0 0 25.192 22.191">
  <path id="Icon_awesome-upload" data-name="Icon awesome-upload" d="M14.564,16.648H10.628a1.115,1.115,0,0,1-1.181-1.04V8.325H5.132a.857.857,0,0,1-.694-1.478l7.484-6.6a1.047,1.047,0,0,1,1.343,0l7.489,6.6a.857.857,0,0,1-.694,1.478H15.745v7.283A1.115,1.115,0,0,1,14.564,16.648ZM25.192,16.3v4.855a1.115,1.115,0,0,1-1.181,1.04H1.181A1.115,1.115,0,0,1,0,21.156V16.3a1.115,1.115,0,0,1,1.181-1.04H7.873v.347a2.609,2.609,0,0,0,2.755,2.428h3.936a2.609,2.609,0,0,0,2.755-2.428v-.347h6.692A1.115,1.115,0,0,1,25.192,16.3Zm-6.1,3.815a.992.992,0,1,0-.984.867A.934.934,0,0,0,19.091,20.116Zm3.149,0a.992.992,0,1,0-.984.867A.934.934,0,0,0,22.24,20.116Z" transform="translate(0 -0.005)" fill="#fff"/>
</svg>
