<svg xmlns="http://www.w3.org/2000/svg" width="27.022" height="21.617" viewBox="0 0 27.022 21.617">
  <path id="Icon_awesome-car-alt" data-name="Icon awesome-car-alt" d="M24.695,12.85l-.633-1.582L22.94,8.463A6.274,6.274,0,0,0,17.086,4.5H9.936A6.275,6.275,0,0,0,4.082,8.463L2.96,11.268,2.327,12.85A3.6,3.6,0,0,0,0,16.209v2.7a3.574,3.574,0,0,0,.9,2.36v3.044a1.8,1.8,0,0,0,1.8,1.8H4.5a1.8,1.8,0,0,0,1.8-1.8v-1.8H20.717v1.8a1.8,1.8,0,0,0,1.8,1.8h1.8a1.8,1.8,0,0,0,1.8-1.8V21.272a3.571,3.571,0,0,0,.9-2.36v-2.7A3.6,3.6,0,0,0,24.695,12.85ZM7.427,9.8A2.7,2.7,0,0,1,9.936,8.1h7.15a2.7,2.7,0,0,1,2.509,1.7l1.122,2.805H6.305L7.427,9.8ZM4.5,18.9a1.7,1.7,0,0,1-1.8-1.8,1.7,1.7,0,0,1,1.8-1.8A3.466,3.466,0,0,1,7.206,18C7.206,19.08,5.585,18.9,4.5,18.9Zm18.015,0c-1.081,0-2.7.18-2.7-.9a3.466,3.466,0,0,1,2.7-2.694,1.7,1.7,0,0,1,1.8,1.8A1.7,1.7,0,0,1,22.518,18.9Z" transform="translate(0 -4.5)" fill="#fff"/>
</svg>
